<?xml version="1.0" encoding="UTF-8"?>
<!DOCTYPE svg PUBLIC "-//W3C//DTD SVG 1.1//EN" "http://www.w3.org/Graphics/SVG/1.1/DTD/svg11.dtd">
<svg xmlns="http://www.w3.org/2000/svg" version="1.1" width="785px" height="743px" style="shape-rendering:geometricPrecision; text-rendering:geometricPrecision; image-rendering:optimizeQuality; fill-rule:evenodd; clip-rule:evenodd" xmlns:xlink="http://www.w3.org/1999/xlink">
<g><path style="opacity:1" fill="#c44c4b" d="M 124.5,75.5 C 301.834,75.3333 479.167,75.5 656.5,76C 672.41,77.5732 682.577,86.0732 687,101.5C 687.667,279.5 687.667,457.5 687,635.5C 683.943,651.557 674.443,661.39 658.5,665C 487.871,665.238 318.037,665.738 149,666.5C 111.625,670.787 94.1253,654.287 96.5,617C 97.4892,445.052 98.3225,273.552 99,102.5C 102.586,88.7505 111.086,79.7505 124.5,75.5 Z"/></g>
<g><path style="opacity:1" fill="#fefffe" d="M 165.5,142.5 C 317.167,142.5 468.833,142.5 620.5,142.5C 620.667,294.5 620.5,446.5 620,598.5C 470.593,597.947 318.76,597.947 164.5,598.5C 164.606,446.4 164.939,294.4 165.5,142.5 Z"/></g>
<g><path style="opacity:1" fill="#000000" d="M 385.5,188.5 C 465.718,189.029 526.552,223.696 568,292.5C 581.739,317.787 589.739,344.787 592,373.5C 592.5,408.498 592.667,443.498 592.5,478.5C 573.833,478.5 555.167,478.5 536.5,478.5C 536.933,441.81 536.433,405.143 535,368.5C 525.16,313.293 494.326,275.126 442.5,254C 385.277,235.28 334.444,246.447 290,287.5C 252.949,327.041 240.949,373.041 254,425.5C 273.008,471.603 307.508,495.936 357.5,498.5C 402.628,495.838 435.461,474.505 456,434.5C 465.828,413.211 468.161,391.211 463,368.5C 449.338,332.41 423.171,315.576 384.5,318C 346.682,325.77 326.015,348.937 322.5,387.5C 323.722,410.388 335.722,422.721 358.5,424.5C 374.711,424.115 385.877,416.448 392,401.5C 393.522,393.127 395.189,384.794 397,376.5C 403.245,363.794 413.412,358.627 427.5,361C 440.677,365.012 448.343,373.846 450.5,387.5C 448.74,429.559 428.74,459.059 390.5,476C 349.378,489.379 314.211,480.213 285,448.5C 270.891,430.508 263.724,410.008 263.5,387C 267.767,332.095 294.767,293.095 344.5,270C 398.903,251.372 446.403,262.205 487,302.5C 519.396,341.502 528.396,385.502 514,434.5C 493.753,498.415 450.92,537.582 385.5,552C 308.773,561.383 250.606,533.216 211,467.5C 190.029,424.817 186.029,380.817 199,335.5C 219.041,270.792 260.541,225.959 323.5,201C 343.701,193.793 364.368,189.627 385.5,188.5 Z"/></g>
<g><path style="opacity:1" fill="#000000" d="M 536.5,493.5 C 555.167,493.5 573.833,493.5 592.5,493.5C 588.341,513.804 584.341,534.137 580.5,554.5C 570.5,554.5 560.5,554.5 550.5,554.5C 545.99,534.127 541.323,513.793 536.5,493.5 Z"/></g>
</svg>
